<svg xmlns="http://www.w3.org/2000/svg" width="154" height="30" viewBox="0 0 154 30" fill="none">
    <g clip-path="url(#clip0_142_5)">
        <rect width="154" height="30" fill="white"/>
        <rect width="30" height="30" fill="#FF5858"/>
        <path d="M10.7784 20.5V8.86364H12.5341V14.4205H12.6761L17.5568 8.86364H19.767L15.0739 14.1023L19.7841 20.5H17.6705L13.9091 15.3011L12.5341 16.8807V20.5H10.7784Z" fill="white"/>
        <rect width="30" height="30" transform="translate(31)" fill="#FF5858"/>
        <path d="M42.2614 20.5H40.3977L44.5852 8.86364H46.6136L50.8011 20.5H48.9375L45.6477 10.9773H45.5568L42.2614 20.5ZM42.5739 15.9432H48.6193V17.4205H42.5739V15.9432Z" fill="white"/>
        <rect width="30" height="30" transform="translate(62)" fill="#FF5858"/>
        <path d="M79.125 11.9205C79.0644 11.3826 78.8144 10.9659 78.375 10.6705C77.9356 10.3712 77.3826 10.2216 76.7159 10.2216C76.2386 10.2216 75.8258 10.2973 75.4773 10.4489C75.1288 10.5966 74.858 10.8011 74.6648 11.0625C74.4754 11.3201 74.3807 11.6136 74.3807 11.9432C74.3807 12.2197 74.4451 12.4583 74.5739 12.6591C74.7064 12.8598 74.8788 13.0284 75.0909 13.1648C75.3068 13.2973 75.5379 13.4091 75.7841 13.5C76.0303 13.5871 76.267 13.6591 76.4943 13.7159L77.6307 14.0114C78.0019 14.1023 78.3826 14.2254 78.7727 14.3807C79.1629 14.536 79.5246 14.7405 79.858 14.9943C80.1913 15.2481 80.4602 15.5625 80.6648 15.9375C80.8731 16.3125 80.9773 16.7614 80.9773 17.2841C80.9773 17.9432 80.8068 18.5284 80.4659 19.0398C80.1288 19.5511 79.6383 19.9545 78.9943 20.25C78.3542 20.5455 77.5795 20.6932 76.6705 20.6932C75.7992 20.6932 75.0455 20.5549 74.4091 20.2784C73.7727 20.0019 73.2746 19.6098 72.9148 19.1023C72.5549 18.5909 72.3561 17.9848 72.3182 17.2841H74.0795C74.1136 17.7045 74.25 18.0549 74.4886 18.3352C74.7311 18.6117 75.0398 18.8182 75.4148 18.9545C75.7936 19.0871 76.2083 19.1534 76.6591 19.1534C77.1553 19.1534 77.5966 19.0758 77.983 18.9205C78.3731 18.7614 78.6799 18.5417 78.9034 18.2614C79.1269 17.9773 79.2386 17.6458 79.2386 17.267C79.2386 16.9223 79.1402 16.6402 78.9432 16.4205C78.75 16.2008 78.4867 16.0189 78.1534 15.875C77.8239 15.7311 77.4508 15.6042 77.0341 15.4943L75.6591 15.1193C74.7273 14.8655 73.9886 14.4924 73.4432 14C72.9015 13.5076 72.6307 12.8561 72.6307 12.0455C72.6307 11.375 72.8125 10.7898 73.1761 10.2898C73.5398 9.78977 74.0322 9.40151 74.6534 9.125C75.2746 8.8447 75.9754 8.70455 76.7557 8.70455C77.5436 8.70455 78.2386 8.8428 78.8409 9.11932C79.447 9.39583 79.9242 9.77652 80.2727 10.2614C80.6212 10.7424 80.803 11.2955 80.8182 11.9205H79.125Z" fill="white"/>
        <rect width="30" height="30" transform="translate(93)" fill="#FF5858"/>
        <path d="M108.534 8.86364V20.5H106.778V8.86364H108.534Z" fill="white"/>
        <rect width="30" height="30" transform="translate(124)" fill="#FF5858"/>
        <path d="M143.886 14.6818C143.886 15.9242 143.659 16.9924 143.205 17.8864C142.75 18.7765 142.127 19.4621 141.335 19.9432C140.547 20.4205 139.652 20.6591 138.648 20.6591C137.64 20.6591 136.741 20.4205 135.949 19.9432C135.161 19.4621 134.54 18.7746 134.085 17.8807C133.631 16.9867 133.403 15.9205 133.403 14.6818C133.403 13.4394 133.631 12.3731 134.085 11.483C134.54 10.589 135.161 9.90341 135.949 9.42614C136.741 8.94508 137.64 8.70455 138.648 8.70455C139.652 8.70455 140.547 8.94508 141.335 9.42614C142.127 9.90341 142.75 10.589 143.205 11.483C143.659 12.3731 143.886 13.4394 143.886 14.6818ZM142.148 14.6818C142.148 13.7348 141.994 12.9375 141.688 12.2898C141.384 11.6383 140.968 11.1458 140.438 10.8125C139.911 10.4754 139.314 10.3068 138.648 10.3068C137.977 10.3068 137.379 10.4754 136.852 10.8125C136.326 11.1458 135.909 11.6383 135.602 12.2898C135.299 12.9375 135.148 13.7348 135.148 14.6818C135.148 15.6288 135.299 16.428 135.602 17.0795C135.909 17.7273 136.326 18.2197 136.852 18.5568C137.379 18.8902 137.977 19.0568 138.648 19.0568C139.314 19.0568 139.911 18.8902 140.438 18.5568C140.968 18.2197 141.384 17.7273 141.688 17.0795C141.994 16.428 142.148 15.6288 142.148 14.6818Z" fill="white"/>
    </g>
    <defs>
        <clip-path id="clip0_142_5">
            <rect width="154" height="30" fill="white"/>
        </clip-path>
    </defs>
</svg>